Coordinates
version=1
nRows=29
nColumns=24
inDegrees=yes

Units are S.I. units (second, meters, Newtons, ...)
Angles are in degrees.

endheader
time	pelvis_tilt	pelvis_list	pelvis_rotation	pelvis_tx	pelvis_ty	pelvis_tz	hip_flexion_r	hip_adduction_r	hip_rotation_r	knee_angle_r	ankle_angle_r	subtalar_angle_r	mtp_angle_r	hip_flexion_l	hip_adduction_l	hip_rotation_l	knee_angle_l	ankle_angle_l	subtalar_angle_l	mtp_angle_l	lumbar_extension	lumbar_bending	lumbar_rotation
      8.64000000	     -8.31965646	      7.79085783	      2.38164811	     -0.70908664	     -0.01569236	      0.64386606	     40.26187158	    -10.82032182	     -2.69343837	    -60.70272591	    -13.42799828	    -13.69709470	     25.82769571	      0.84673411	     10.93170441	     14.43395148	    -12.32055360	     16.22736043	     -9.97074791	    -33.96997138	      6.45598462	     -8.79860995	     -7.84697475
      8.64500000	     -8.21335424	      7.65645217	      2.45550098	     -0.70258912	     -0.01597893	      0.64365977	     40.46129495	    -10.61121571	     -2.46479585	    -59.41777659	    -13.07519204	    -13.24574626	     25.67980301	      0.21479615	     10.71824477	     14.37830547	    -12.12054587	     16.36918549	     -9.61235186	    -33.76375845	      6.26702158	     -8.59155080	     -8.01115840
      8.65000000	     -8.04796834	      7.55495865	      2.50102622	     -0.69622184	     -0.01627556	      0.64356028	     40.57424290	    -10.39956176	     -2.18195378	    -58.07420864	    -12.66737643	    -12.88746439	     25.32118370	     -0.43549346	     10.52864902	     14.23018826	    -11.98800655	     16.49809200	     -9.13899957	    -33.36953301	      5.98831798	     -8.41326383	     -8.19328108
      8.65500000	     -7.99515721	      7.42153321	      2.54833767	     -0.68976209	     -0.01667740	      0.64343511	     40.75914634	    -10.16227968	     -1.89583199	    -56.64814991	    -12.30574003	    -12.54051744	     24.95608376	     -0.96672355	     10.31048611	     14.10129349	    -11.85412404	     16.58136538	     -8.70808996	    -32.90948347	      5.85356528	     -8.19922925	     -8.33133839
      8.66000000	     -7.94574573	      7.28997329	      2.58853336	     -0.68331424	     -0.01709586	      0.64332894	     40.90740856	     -9.92655269	     -1.60175623	    -55.15123366	    -11.96394865	    -12.26995957	     24.49921927	     -1.47799665	     10.09173240	     13.93413876	    -11.74379822	     16.63594604	     -8.23160807	    -32.34132176	      5.72040572	     -7.98458926	     -8.46686264
      8.66500000	     -7.91431247	      7.15423466	      2.63050384	     -0.67685251	     -0.01754439	      0.64322608	     41.03137950	     -9.69540139	     -1.31398851	    -53.58847213	    -11.63485153	    -12.07622015	     23.91115403	     -1.95485720	      9.86679069	     13.73703930	    -11.65867781	     16.65685864	     -7.71283675	    -31.63536841	      5.61007805	     -7.76315496	     -8.60313225
      8.67000000	     -7.99772816	      7.06318364	      2.62990024	     -0.67037774	     -0.01817129	      0.64324323	     41.27893593	     -9.46063489	     -0.93889351	    -52.02424443	    -11.27586998	    -11.93490094	     22.68271345	     -2.29680969	      9.68887909	     13.41498392	    -11.55675707	     16.18808375	     -7.26834764	    -29.49474076	      5.63367731	     -7.59441285	     -8.67519636
      8.67500000	     -8.08046274	      6.95871087	      2.73367547	     -0.66389997	     -0.01874132	      0.64291677	     41.43423649	     -9.34083444	     -0.66585277	    -50.31674184	    -11.04545333	    -11.84264747	     22.60556809	     -2.64311962	      9.52985036	     13.42768228	    -11.51014039	     16.24106550	     -6.94889013	    -29.35701576	      5.64376545	     -7.39270148	     -8.87891978
      8.68000000	     -7.96562349	      6.81382354	      2.79147579	     -0.65743507	     -0.01909536	      0.64283536	     41.32958797	     -9.14497173	     -0.44243173	    -48.56019382	    -10.83940123	    -12.01073416	     21.81970307	     -3.16048775	      9.27594133	     13.09074902	    -11.50766442	     16.37386370	     -6.16086110	    -28.80790020	      5.42982630	     -7.15792692	     -9.04842378
      8.68500000	     -8.00856337	      6.67380840	      2.85961779	     -0.65084823	     -0.01964393	      0.64270617	     41.36244011	     -8.96562480	     -0.19816385	    -46.78950112	    -10.53447389	    -12.09469367	     20.71942596	     -3.51122444	      9.04738378	     12.83990767	    -11.50951612	     16.34725703	     -5.56682996	    -28.03544165	      5.41250492	     -6.92681489	     -9.19686835
      8.69000000	     -8.06047893	      6.56653803	      2.93702128	     -0.64421988	     -0.02023580	      0.64250365	     41.37089164	     -8.84347886	      0.03710297	    -44.98451211	    -10.21441363	    -12.23241224	     19.74700750	     -3.84839831	      8.86241972	     12.62871093	    -11.52706234	     16.27093499	     -5.02475341	    -27.26740263	      5.40694164	     -6.71525420	     -9.33613467
      8.69500000	     -8.12879134	      6.45474757	      3.03227689	     -0.63755191	     -0.02082422	      0.64229056	     41.35959330	     -8.73152639	      0.28558069	    -43.15399146	     -9.93297962	    -12.34810352	     18.73256471	     -4.16191021	      8.66883699	     12.39316959	    -11.55116791	     16.17104697	     -4.44381137	    -26.45829202	      5.42103106	     -6.50376549	     -9.49243059
      8.70000000	     -8.20508128	      6.33916870	      3.14736995	     -0.63080792	     -0.02144238	      0.64204332	     41.31516280	     -8.64213916	      0.49916458	    -41.30043776	     -9.62277043	    -12.48773170	     17.76316464	     -4.45492461	      8.47428042	     12.18398842	    -11.60897168	     16.06771057	     -3.87656702	    -25.67092769	      5.45025654	     -6.28807717	     -9.65799404
      8.70500000	     -8.28253066	      6.21506235	      3.27015080	     -0.62398564	     -0.02206817	      0.64178177	     41.23822047	     -8.55510418	      0.71979241	    -39.44536665	     -9.28717182	    -12.56718280	     16.75883322	     -4.73724701	      8.26825572	     11.94989538	    -11.68694948	     15.94007871	     -3.27215117	    -24.79926613	      5.49016266	     -6.05789535	     -9.82466638
      8.71000000	     -8.36387334	      6.08105895	      3.41697065	     -0.61709096	     -0.02270127	      0.64148270	     41.13144113	     -8.48086129	      0.93250898	    -37.59808626	     -8.93168705	    -12.58705057	     15.76309740	     -5.00662403	      8.04942401	     11.72250502	    -11.78320035	     15.76046597	     -2.65349948	    -23.77959507	      5.54054494	     -5.81564207	    -10.00793071
      8.71500000	     -8.45182938	      5.92985469	      3.58494158	     -0.61010087	     -0.02335383	      0.64114374	     41.00059895	     -8.41298994	      1.13122575	    -35.77115952	     -8.56160002	    -12.54173695	     14.86435145	     -5.25772742	      7.81125071	     11.49227873	    -11.90454104	     15.54681826	     -2.02479506	    -22.65547046	      5.60814779	     -5.55446504	    -10.20496322
      8.72000000	     -8.64478427	      5.82454696	      3.73161807	     -0.60299039	     -0.02419698	      0.64088432	     40.99323165	     -8.36050881	      1.44677997	    -34.05253272	     -7.99180385	    -12.23560260	     13.56389355	     -5.41277309	      7.61736916	     11.16625682	    -11.92988910	     14.42715443	     -1.58700715	    -18.79687288	      5.81326547	     -5.34627445	    -10.31490761
      8.72500000	     -8.74965844	      5.63987894	      3.92762539	     -0.59577138	     -0.02486929	      0.64040502	     40.82702027	     -8.30921298	      1.61177152	    -32.27935360	     -7.78799822	    -12.13984484	     13.48399672	     -5.65477794	      7.35367911	     11.06234848	    -12.07138878	     14.43434737	     -1.01708031	    -18.61489669	      5.93156183	     -5.02929285	    -10.50202848
      8.73000000	     -8.75506438	      5.44581295	      4.15565400	     -0.58859868	     -0.02546558	      0.64004619	     40.53694868	     -8.23793985	      1.83254698	    -30.60078950	     -7.47925161	    -11.99383884	     12.96974721	     -5.93946814	      7.04999641	     10.80920667	    -12.31054123	     14.41295652	     -0.24873058	    -18.04639813	      5.92242812	     -4.72143398	    -10.76231297
      8.73500000	     -8.79150015	      5.18068674	      4.27555273	     -0.58113667	     -0.02613177	      0.63988968	     40.28171787	     -8.00399442	      2.19935469	    -29.06701423	     -6.96902654	    -11.60408887	     11.57267606	     -6.23907144	      6.65384136	     10.46640484	    -12.42403693	     13.92201618	      0.44833611	    -15.98452579	      6.00360252	     -4.32446456	    -10.80748970
      8.74000000	     -8.94868212	      5.00992835	      4.64223446	     -0.57376017	     -0.02689138	      0.63919365	     40.14322248	     -8.09204256	      2.29923650	    -27.62051301	     -6.65607335	    -11.08833078	     11.59744476	     -6.35877622	      6.40316605	     10.47943751	    -12.68537391	     13.75193150	      0.94225710	    -15.48681376	      6.18628780	     -4.04394417	    -11.18659833
      8.74500000	     -9.09626091	      4.75136460	      4.86412108	     -0.56611854	     -0.02768945	      0.63868789	     39.99429400	     -7.98393281	      2.53832776	    -26.28532255	     -6.40010527	    -10.59713035	     11.52236091	     -6.52114362	      6.06376496	     10.48569537	    -12.90301313	     13.62481440	      1.35318452	    -15.17363311	      6.40960280	     -3.64077120	    -11.29632654
      8.75000000	     -8.93959848	      4.34183963	      5.04146797	     -0.55836065	     -0.02814020	      0.63859940	     39.47578211	     -7.62127847	      2.90293338	    -25.08900311	     -5.97390711	    -10.22759830	     10.01410084	     -6.96354984	      5.44839653	      9.90889447	    -13.06542669	     12.83209891	      2.28817354	    -11.91442356	      6.32482986	     -3.08923758	    -11.46796369
      8.75500000	     -9.17248027	      4.16880122	      5.45307225	     -0.55073234	     -0.02907760	      0.63792680	     39.44463780	     -7.73328044	      2.98405795	    -24.09907994	     -5.77686718	     -9.56025917	     10.56860270	     -6.97975145	      5.17525830	      9.94366028	    -13.27508279	     11.74024191	      2.60836418	     -8.60741376	      6.62650824	     -2.82306684	    -11.79413852
      8.76000000	     -9.21068416	      3.83214207	      5.80443595	     -0.54289321	     -0.02976548	      0.63737037	     39.16159875	     -7.61226744	      3.11922365	    -23.22143021	     -5.61098548	     -9.06595890	     10.49363391	     -7.16656762	      4.71229459	      9.95360281	    -13.64540826	     11.67601186	      3.23083818	     -8.37454309	      6.75931868	     -2.35418032	    -12.07222214
      8.76500000	     -9.23126532	      3.49642145	      6.14460472	     -0.53493499	     -0.03046084	      0.63682045	     38.87570825	     -7.48027082	      3.23072942	    -22.52643425	     -5.46510217	     -8.56100239	     10.44905525	     -7.37573221	      4.25250115	     10.01433733	    -14.00154611	     11.45633351	      3.73262094	     -7.90463094	      6.89390280	     -1.88166189	    -12.32164801
      8.77000000	     -9.34637581	      3.16846528	      6.40752079	     -0.52675136	     -0.03130038	      0.63631092	     38.71773356	     -7.30637130	      3.38065978	    -22.00991870	     -5.40222294	     -8.11108668	     10.51972882	     -7.51394105	      3.83733058	     10.14903670	    -14.32541472	     11.17088716	      3.99368386	     -7.64484481	      7.17563637	     -1.40560188	    -12.43290479
      8.77500000	     -9.30611561	      2.77084719	      6.74701650	     -0.51865125	     -0.03194841	      0.63595937	     38.37821667	     -7.07346810	      3.45350747	    -21.62051439	     -5.57874925	     -7.95082105	     10.75605232	     -7.73985422	      3.25487897	      9.97958447	    -14.59442079	      9.80038643	      4.46497222	     -3.43433153	      7.27055613	     -0.88041043	    -12.69109915
      8.78000000	     -9.40044207	      2.46403227	      7.03102687	     -0.51035431	     -0.03280760	      0.63542934	     38.23833729	     -6.92381897	      3.50690538	    -21.47855599	     -5.60621121	     -7.52355632	     10.87481366	     -7.84044740	      2.87214942	     10.17170849	    -15.03043941	      9.49044020	      4.66470155	     -3.39809200	      7.54427271	     -0.42583946	    -12.80640011
